<mxfile host="Electron" modified="2023-07-30T06:54:23.483Z" agent="Mozilla/5.0 (X11; Linux x86_64) AppleWebKit/537.36 (KHTML, like Gecko) draw.io/21.6.1 Chrome/112.0.5615.204 Electron/24.6.1 Safari/537.36" etag="C7eWBAkr17-Lyhu6tTw-" version="21.6.1" type="device">
  <diagram name="Page-1" id="lv2RBA-2qfxnkMvO_x3A">
    <mxGraphModel dx="584" dy="907" grid="1" gridSize="10" guides="1" tooltips="1" connect="1" arrows="1" fold="1" page="1" pageScale="1" pageWidth="850" pageHeight="1100" math="0" shadow="0">
      <root>
        <mxCell id="0" />
        <mxCell id="1" parent="0" />
        <mxCell id="BNYgEi7Eg44o0tTcF_Rr-1" value="" style="group;fontStyle=1" vertex="1" connectable="0" parent="1">
          <mxGeometry x="1020" y="290" width="500" height="40" as="geometry" />
        </mxCell>
        <mxCell id="BNYgEi7Eg44o0tTcF_Rr-2" value="&lt;b&gt;&amp;nbsp; Legend&lt;/b&gt;" style="text;html=1;align=left;verticalAlign=middle;whiteSpace=wrap;rounded=1;fontFamily=Courier New;perimeterSpacing=6;shadow=0;fillColor=#FAE5C7;fontColor=#143642;strokeColor=#0F8B8D;labelBackgroundColor=none;container=0;" vertex="1" parent="BNYgEi7Eg44o0tTcF_Rr-1">
          <mxGeometry width="500" height="40" as="geometry" />
        </mxCell>
        <mxCell id="BNYgEi7Eg44o0tTcF_Rr-3" value="String" style="ellipse;whiteSpace=wrap;html=1;rounded=1;labelBackgroundColor=none;strokeColor=#0F8B8D;fontFamily=Helvetica;fontSize=12;fontColor=default;fillColor=default;container=0;" vertex="1" parent="BNYgEi7Eg44o0tTcF_Rr-1">
          <mxGeometry x="308.3299999999997" y="5" width="71.66666666666667" height="30" as="geometry" />
        </mxCell>
        <mxCell id="BNYgEi7Eg44o0tTcF_Rr-4" value="variable" style="shape=hexagon;perimeter=hexagonPerimeter2;whiteSpace=wrap;html=1;fixedSize=1;strokeColor=#0F8B8D;fontColor=#143642;fillColor=default;container=0;" vertex="1" parent="BNYgEi7Eg44o0tTcF_Rr-1">
          <mxGeometry x="189.99555555555548" y="5" width="107.5" height="30" as="geometry" />
        </mxCell>
        <mxCell id="BNYgEi7Eg44o0tTcF_Rr-5" value="&lt;p&gt;keyword&lt;/p&gt;" style="rounded=1;whiteSpace=wrap;html=1;arcSize=50;fontStyle=0;fillColor=#FAE5C7;strokeColor=#0F8B8D;labelBackgroundColor=none;fontColor=#143642;container=0;" vertex="1" parent="BNYgEi7Eg44o0tTcF_Rr-1">
          <mxGeometry x="70.00111111111119" y="5" width="107.5" height="30" as="geometry" />
        </mxCell>
        <mxCell id="BNYgEi7Eg44o0tTcF_Rr-6" value="Go to" style="rounded=1;whiteSpace=wrap;html=1;strokeColor=#0F8B8D;fontFamily=Helvetica;fontSize=12;fontColor=#143642;fillColor=#FAE5C7;arcSize=0;fontStyle=0;shadow=0;labelBackgroundColor=none;" vertex="1" parent="BNYgEi7Eg44o0tTcF_Rr-1">
          <mxGeometry x="390" y="5" width="95" height="30" as="geometry" />
        </mxCell>
        <mxCell id="BNYgEi7Eg44o0tTcF_Rr-7" value="" style="group" vertex="1" connectable="0" parent="1">
          <mxGeometry x="990" y="110" width="560" height="160" as="geometry" />
        </mxCell>
        <mxCell id="EwrT_p0m1SvkqEXyKUbj-3" value="&lt;p&gt;components:&lt;/p&gt;" style="rounded=1;whiteSpace=wrap;html=1;arcSize=50;fontStyle=0;fillColor=#FAE5C7;strokeColor=#0F8B8D;labelBackgroundColor=none;fontColor=#143642;" parent="BNYgEi7Eg44o0tTcF_Rr-7" vertex="1">
          <mxGeometry x="100" y="10" width="90" height="30" as="geometry" />
        </mxCell>
        <mxCell id="EwrT_p0m1SvkqEXyKUbj-11" value="&lt;p&gt;components:&lt;/p&gt;" style="rounded=1;whiteSpace=wrap;html=1;arcSize=50;fontStyle=0;fillColor=#FAE5C7;strokeColor=#0F8B8D;labelBackgroundColor=none;fontColor=#143642;" parent="BNYgEi7Eg44o0tTcF_Rr-7" vertex="1">
          <mxGeometry x="210" y="70" width="90" height="30" as="geometry" />
        </mxCell>
        <mxCell id="EwrT_p0m1SvkqEXyKUbj-13" value="Core Definition" style="rounded=1;whiteSpace=wrap;html=1;strokeColor=#0F8B8D;fontFamily=Helvetica;fontSize=12;fontColor=#143642;fillColor=#FAE5C7;arcSize=0;fontStyle=0;shadow=0;labelBackgroundColor=none;" parent="BNYgEi7Eg44o0tTcF_Rr-7" vertex="1">
          <mxGeometry x="225" y="10" width="95" height="30" as="geometry" />
        </mxCell>
        <mxCell id="EwrT_p0m1SvkqEXyKUbj-19" style="edgeStyle=orthogonalEdgeStyle;shape=connector;rounded=1;orthogonalLoop=1;jettySize=auto;html=1;labelBackgroundColor=none;strokeColor=#A8201A;strokeWidth=2;fontFamily=Helvetica;fontSize=12;fontColor=default;endArrow=none;endFill=0;" parent="BNYgEi7Eg44o0tTcF_Rr-7" source="EwrT_p0m1SvkqEXyKUbj-3" target="EwrT_p0m1SvkqEXyKUbj-13" edge="1">
          <mxGeometry relative="1" as="geometry" />
        </mxCell>
        <mxCell id="EwrT_p0m1SvkqEXyKUbj-21" style="edgeStyle=orthogonalEdgeStyle;shape=connector;rounded=1;orthogonalLoop=1;jettySize=auto;html=1;exitX=1;exitY=0.5;exitDx=0;exitDy=0;labelBackgroundColor=none;strokeColor=#A8201A;strokeWidth=2;fontFamily=Helvetica;fontSize=12;fontColor=default;endArrow=blockThin;endFill=1;" parent="BNYgEi7Eg44o0tTcF_Rr-7" source="EwrT_p0m1SvkqEXyKUbj-14" edge="1">
          <mxGeometry relative="1" as="geometry">
            <mxPoint x="560" y="25.14285714285711" as="targetPoint" />
          </mxGeometry>
        </mxCell>
        <mxCell id="LG3iuX8Y8zPMMsH6l0UP-2" style="edgeStyle=orthogonalEdgeStyle;shape=connector;rounded=1;orthogonalLoop=1;jettySize=auto;html=1;exitX=1;exitY=0.5;exitDx=0;exitDy=0;entryX=0;entryY=0.5;entryDx=0;entryDy=0;labelBackgroundColor=none;strokeColor=#A8201A;strokeWidth=2;fontFamily=Helvetica;fontSize=12;fontColor=default;endArrow=none;endFill=0;" parent="BNYgEi7Eg44o0tTcF_Rr-7" source="EwrT_p0m1SvkqEXyKUbj-14" target="EwrT_p0m1SvkqEXyKUbj-13" edge="1">
          <mxGeometry relative="1" as="geometry">
            <Array as="points">
              <mxPoint x="470" y="25" />
              <mxPoint x="470" />
              <mxPoint x="205" />
              <mxPoint x="205" y="25" />
            </Array>
          </mxGeometry>
        </mxCell>
        <mxCell id="LG3iuX8Y8zPMMsH6l0UP-3" style="edgeStyle=orthogonalEdgeStyle;shape=connector;rounded=1;orthogonalLoop=1;jettySize=auto;html=1;exitX=1;exitY=0.5;exitDx=0;exitDy=0;entryX=0;entryY=0.5;entryDx=0;entryDy=0;labelBackgroundColor=none;strokeColor=#A8201A;strokeWidth=2;fontFamily=Helvetica;fontSize=12;fontColor=default;endArrow=blockThin;endFill=1;" parent="BNYgEi7Eg44o0tTcF_Rr-7" source="EwrT_p0m1SvkqEXyKUbj-14" target="EwrT_p0m1SvkqEXyKUbj-3" edge="1">
          <mxGeometry relative="1" as="geometry">
            <Array as="points">
              <mxPoint x="470" y="25" />
              <mxPoint x="470" />
              <mxPoint x="80" />
              <mxPoint x="80" y="25" />
            </Array>
          </mxGeometry>
        </mxCell>
        <mxCell id="EwrT_p0m1SvkqEXyKUbj-14" value="Location Context" style="rounded=1;whiteSpace=wrap;html=1;strokeColor=#0F8B8D;fontFamily=Helvetica;fontSize=12;fontColor=#143642;fillColor=#FAE5C7;arcSize=0;fontStyle=0;shadow=0;labelBackgroundColor=none;" parent="BNYgEi7Eg44o0tTcF_Rr-7" vertex="1">
          <mxGeometry x="350" y="10" width="100" height="30" as="geometry" />
        </mxCell>
        <mxCell id="EwrT_p0m1SvkqEXyKUbj-20" style="edgeStyle=orthogonalEdgeStyle;shape=connector;rounded=1;orthogonalLoop=1;jettySize=auto;html=1;labelBackgroundColor=none;strokeColor=#A8201A;strokeWidth=2;fontFamily=Helvetica;fontSize=12;fontColor=default;endArrow=none;endFill=0;" parent="BNYgEi7Eg44o0tTcF_Rr-7" source="EwrT_p0m1SvkqEXyKUbj-13" target="EwrT_p0m1SvkqEXyKUbj-14" edge="1">
          <mxGeometry relative="1" as="geometry" />
        </mxCell>
        <mxCell id="EwrT_p0m1SvkqEXyKUbj-18" value="" style="endArrow=blockThin;html=1;rounded=1;labelBackgroundColor=none;strokeColor=#A8201A;strokeWidth=2;fontFamily=Helvetica;fontSize=12;fontColor=default;shape=connector;endFill=1;align=left;" parent="BNYgEi7Eg44o0tTcF_Rr-7" target="EwrT_p0m1SvkqEXyKUbj-3" edge="1">
          <mxGeometry width="50" height="50" relative="1" as="geometry">
            <mxPoint y="25" as="sourcePoint" />
            <mxPoint x="70" y="24.75999999999999" as="targetPoint" />
          </mxGeometry>
        </mxCell>
        <mxCell id="EwrT_p0m1SvkqEXyKUbj-22" value="Components" style="text;html=1;strokeColor=none;fillColor=none;align=left;verticalAlign=middle;whiteSpace=wrap;rounded=0;fontSize=12;fontFamily=Helvetica;fontColor=#383838;" parent="BNYgEi7Eg44o0tTcF_Rr-7" vertex="1">
          <mxGeometry width="80" height="20" as="geometry" />
        </mxCell>
        <mxCell id="EwrT_p0m1SvkqEXyKUbj-23" value="location identifier" style="shape=hexagon;perimeter=hexagonPerimeter2;whiteSpace=wrap;html=1;fixedSize=1;strokeColor=#0F8B8D;fontColor=#143642;fillColor=default;" parent="BNYgEi7Eg44o0tTcF_Rr-7" vertex="1">
          <mxGeometry x="215" y="130" width="130" height="30" as="geometry" />
        </mxCell>
        <mxCell id="LG3iuX8Y8zPMMsH6l0UP-1" style="edgeStyle=orthogonalEdgeStyle;shape=connector;rounded=1;orthogonalLoop=1;jettySize=auto;html=1;exitX=1;exitY=0.5;exitDx=0;exitDy=0;entryX=0;entryY=0.5;entryDx=0;entryDy=0;labelBackgroundColor=none;strokeColor=#A8201A;strokeWidth=2;fontFamily=Helvetica;fontSize=12;fontColor=default;endArrow=none;endFill=0;" parent="BNYgEi7Eg44o0tTcF_Rr-7" source="EwrT_p0m1SvkqEXyKUbj-24" target="EwrT_p0m1SvkqEXyKUbj-23" edge="1">
          <mxGeometry relative="1" as="geometry">
            <Array as="points">
              <mxPoint x="529" y="145" />
              <mxPoint x="529" y="120" />
              <mxPoint x="195" y="120" />
              <mxPoint x="195" y="145" />
            </Array>
          </mxGeometry>
        </mxCell>
        <mxCell id="EwrT_p0m1SvkqEXyKUbj-24" value="expr" style="ellipse;whiteSpace=wrap;html=1;rounded=1;labelBackgroundColor=none;strokeColor=#0F8B8D;fontFamily=Helvetica;fontSize=12;fontColor=default;fillColor=default;" parent="BNYgEi7Eg44o0tTcF_Rr-7" vertex="1">
          <mxGeometry x="458.77" y="130" width="50" height="30" as="geometry" />
        </mxCell>
        <mxCell id="EwrT_p0m1SvkqEXyKUbj-50" value="" style="edgeStyle=orthogonalEdgeStyle;shape=connector;rounded=1;orthogonalLoop=1;jettySize=auto;html=1;labelBackgroundColor=none;strokeColor=#A8201A;strokeWidth=2;fontFamily=Helvetica;fontSize=12;fontColor=default;endArrow=none;endFill=0;" parent="BNYgEi7Eg44o0tTcF_Rr-7" source="EwrT_p0m1SvkqEXyKUbj-23" target="EwrT_p0m1SvkqEXyKUbj-24" edge="1">
          <mxGeometry relative="1" as="geometry" />
        </mxCell>
        <mxCell id="EwrT_p0m1SvkqEXyKUbj-34" value="expr" style="ellipse;whiteSpace=wrap;html=1;rounded=1;labelBackgroundColor=none;strokeColor=#0F8B8D;fontFamily=Helvetica;fontSize=12;fontColor=default;fillColor=default;" parent="BNYgEi7Eg44o0tTcF_Rr-7" vertex="1">
          <mxGeometry x="480" y="70" width="50" height="30" as="geometry" />
        </mxCell>
        <mxCell id="EwrT_p0m1SvkqEXyKUbj-47" value="" style="edgeStyle=orthogonalEdgeStyle;shape=connector;rounded=1;orthogonalLoop=1;jettySize=auto;html=1;labelBackgroundColor=none;strokeColor=#A8201A;strokeWidth=2;fontFamily=Helvetica;fontSize=12;fontColor=default;endArrow=none;endFill=0;" parent="BNYgEi7Eg44o0tTcF_Rr-7" source="EwrT_p0m1SvkqEXyKUbj-35" target="EwrT_p0m1SvkqEXyKUbj-34" edge="1">
          <mxGeometry relative="1" as="geometry" />
        </mxCell>
        <mxCell id="EwrT_p0m1SvkqEXyKUbj-35" value="&lt;p&gt;type:&lt;/p&gt;" style="rounded=1;whiteSpace=wrap;html=1;arcSize=50;fontStyle=0;fillColor=#FAE5C7;strokeColor=#0F8B8D;labelBackgroundColor=none;fontColor=#143642;" parent="BNYgEi7Eg44o0tTcF_Rr-7" vertex="1">
          <mxGeometry x="400" y="70" width="50" height="30" as="geometry" />
        </mxCell>
        <mxCell id="EwrT_p0m1SvkqEXyKUbj-46" value="" style="edgeStyle=orthogonalEdgeStyle;shape=connector;rounded=1;orthogonalLoop=1;jettySize=auto;html=1;labelBackgroundColor=none;strokeColor=#A8201A;strokeWidth=2;fontFamily=Helvetica;fontSize=12;fontColor=default;endArrow=none;endFill=0;" parent="BNYgEi7Eg44o0tTcF_Rr-7" source="EwrT_p0m1SvkqEXyKUbj-11" target="EwrT_p0m1SvkqEXyKUbj-35" edge="1">
          <mxGeometry relative="1" as="geometry" />
        </mxCell>
        <mxCell id="EwrT_p0m1SvkqEXyKUbj-49" value="" style="edgeStyle=orthogonalEdgeStyle;shape=connector;rounded=1;orthogonalLoop=1;jettySize=auto;html=1;labelBackgroundColor=none;strokeColor=#A8201A;strokeWidth=2;fontFamily=Helvetica;fontSize=12;fontColor=default;endArrow=none;endFill=0;" parent="BNYgEi7Eg44o0tTcF_Rr-7" source="EwrT_p0m1SvkqEXyKUbj-36" target="EwrT_p0m1SvkqEXyKUbj-23" edge="1">
          <mxGeometry relative="1" as="geometry" />
        </mxCell>
        <mxCell id="EwrT_p0m1SvkqEXyKUbj-36" value="&lt;p&gt;locations:&lt;/p&gt;" style="rounded=1;whiteSpace=wrap;html=1;arcSize=50;fontStyle=0;fillColor=#FAE5C7;strokeColor=#0F8B8D;labelBackgroundColor=none;fontColor=#143642;" parent="BNYgEi7Eg44o0tTcF_Rr-7" vertex="1">
          <mxGeometry x="100" y="130" width="90" height="30" as="geometry" />
        </mxCell>
        <mxCell id="EwrT_p0m1SvkqEXyKUbj-37" value="Core Definition" style="text;html=1;strokeColor=none;fillColor=none;align=left;verticalAlign=middle;whiteSpace=wrap;rounded=0;fontSize=12;fontFamily=Helvetica;fontColor=#383838;" parent="BNYgEi7Eg44o0tTcF_Rr-7" vertex="1">
          <mxGeometry y="60" width="90" height="20" as="geometry" />
        </mxCell>
        <mxCell id="EwrT_p0m1SvkqEXyKUbj-39" value="Location Context" style="text;html=1;strokeColor=none;fillColor=none;align=left;verticalAlign=middle;whiteSpace=wrap;rounded=0;fontSize=12;fontFamily=Helvetica;fontColor=#383838;" parent="BNYgEi7Eg44o0tTcF_Rr-7" vertex="1">
          <mxGeometry y="120" width="100" height="20" as="geometry" />
        </mxCell>
        <mxCell id="EwrT_p0m1SvkqEXyKUbj-45" value="" style="edgeStyle=orthogonalEdgeStyle;shape=connector;rounded=1;orthogonalLoop=1;jettySize=auto;html=1;labelBackgroundColor=none;strokeColor=#A8201A;strokeWidth=2;fontFamily=Helvetica;fontSize=12;fontColor=default;endArrow=none;endFill=0;" parent="BNYgEi7Eg44o0tTcF_Rr-7" source="EwrT_p0m1SvkqEXyKUbj-42" target="EwrT_p0m1SvkqEXyKUbj-11" edge="1">
          <mxGeometry relative="1" as="geometry" />
        </mxCell>
        <mxCell id="EwrT_p0m1SvkqEXyKUbj-42" value="identifier" style="shape=hexagon;perimeter=hexagonPerimeter2;whiteSpace=wrap;html=1;fixedSize=1;strokeColor=#0F8B8D;fontColor=#143642;fillColor=default;" parent="BNYgEi7Eg44o0tTcF_Rr-7" vertex="1">
          <mxGeometry x="100" y="70" width="80" height="30" as="geometry" />
        </mxCell>
        <mxCell id="EwrT_p0m1SvkqEXyKUbj-43" value="" style="endArrow=blockThin;html=1;rounded=1;labelBackgroundColor=none;strokeColor=#A8201A;strokeWidth=2;fontFamily=Helvetica;fontSize=12;fontColor=default;shape=connector;endFill=1;align=left;" parent="BNYgEi7Eg44o0tTcF_Rr-7" edge="1">
          <mxGeometry width="50" height="50" relative="1" as="geometry">
            <mxPoint y="84.75999999999999" as="sourcePoint" />
            <mxPoint x="100" y="84.75999999999999" as="targetPoint" />
          </mxGeometry>
        </mxCell>
        <mxCell id="EwrT_p0m1SvkqEXyKUbj-44" value="" style="endArrow=blockThin;html=1;rounded=1;labelBackgroundColor=none;strokeColor=#A8201A;strokeWidth=2;fontFamily=Helvetica;fontSize=12;fontColor=default;shape=connector;endFill=1;align=left;" parent="BNYgEi7Eg44o0tTcF_Rr-7" edge="1">
          <mxGeometry width="50" height="50" relative="1" as="geometry">
            <mxPoint y="144.76" as="sourcePoint" />
            <mxPoint x="100" y="144.76" as="targetPoint" />
          </mxGeometry>
        </mxCell>
        <mxCell id="EwrT_p0m1SvkqEXyKUbj-48" style="edgeStyle=orthogonalEdgeStyle;shape=connector;rounded=1;orthogonalLoop=1;jettySize=auto;html=1;labelBackgroundColor=none;strokeColor=#A8201A;strokeWidth=2;fontFamily=Helvetica;fontSize=12;fontColor=default;endArrow=blockThin;endFill=1;" parent="BNYgEi7Eg44o0tTcF_Rr-7" source="EwrT_p0m1SvkqEXyKUbj-34" edge="1">
          <mxGeometry relative="1" as="geometry">
            <mxPoint x="560" y="85" as="targetPoint" />
            <mxPoint x="515.3900000000001" y="84.69999999999999" as="sourcePoint" />
          </mxGeometry>
        </mxCell>
        <mxCell id="EwrT_p0m1SvkqEXyKUbj-10" value="identifier" style="shape=hexagon;perimeter=hexagonPerimeter2;whiteSpace=wrap;html=1;fixedSize=1;strokeColor=#0F8B8D;fontColor=#143642;fillColor=default;" parent="BNYgEi7Eg44o0tTcF_Rr-7" vertex="1">
          <mxGeometry x="360" y="130" width="80" height="30" as="geometry" />
        </mxCell>
        <mxCell id="EwrT_p0m1SvkqEXyKUbj-51" style="edgeStyle=orthogonalEdgeStyle;shape=connector;rounded=1;orthogonalLoop=1;jettySize=auto;html=1;labelBackgroundColor=none;strokeColor=#A8201A;strokeWidth=2;fontFamily=Helvetica;fontSize=12;fontColor=default;endArrow=blockThin;endFill=1;" parent="BNYgEi7Eg44o0tTcF_Rr-7" source="EwrT_p0m1SvkqEXyKUbj-24" edge="1">
          <mxGeometry relative="1" as="geometry">
            <mxPoint x="558.77" y="144.79999999999995" as="targetPoint" />
            <mxPoint x="528.77" y="144.79999999999995" as="sourcePoint" />
          </mxGeometry>
        </mxCell>
        <mxCell id="EwrT_p0m1SvkqEXyKUbj-31" value="expr" style="ellipse;whiteSpace=wrap;html=1;rounded=1;labelBackgroundColor=none;strokeColor=#0F8B8D;fontFamily=Helvetica;fontSize=12;fontColor=default;fillColor=default;" parent="BNYgEi7Eg44o0tTcF_Rr-7" vertex="1">
          <mxGeometry x="320" y="70" width="50" height="30" as="geometry" />
        </mxCell>
      </root>
    </mxGraphModel>
  </diagram>
</mxfile>
